# xmcd
#
# Track frame offsets:
#	150
#	17081
#	36302
#	49011
#	71904
#	93660
#	111676
#	125296
#
# Disc length: 1886 seconds
#
# Revision: 1
# Processed by: cddbd v1.5.2PL0 Copyright (c) Steve Scherf et al.
# Submitted via: audiograbber 1.83.01
#
DISCID=74075c08
DTITLE=Phil Pritchett and The Full Band -  The Bullfighter Returns
DYEAR=2008
DGENRE=Country
TTITLE0=All I Want To Do Is
TTITLE1=The Bullfighter Returns
TTITLE2=Girl Of All Seasons
TTITLE3=Living Isn't An Easy Thing To Do
TTITLE4=Thieves In The Market
TTITLE5=If You Listen To Too Many People
TTITLE6=I'm Gonna Find That Girl
TTITLE7=Find My Own Way (And Be Happy With Where I Go)
EXTD=
EXTT0=
EXTT1=
EXTT2=
EXTT3=
EXTT4=
EXTT5=
EXTT6=
EXTT7=
PLAYORDER=
